<svg width="201" height="30" viewBox="0 0 201 30" fill="none" xmlns="http://www.w3.org/2000/svg">
<path d="M14.8776 13.329C17.7009 10.9549 23.5087 2.46948 14.4339 3.96432C10.4813 4.57983 5.58145 8.17707 4.41181 12.6616C3.80159 11.4624 3.12824 10.3027 2.39516 9.18828C1.30618 7.64948 -0.852202 9.15228 0.357775 10.735C3.78608 15.2635 6.1657 20.7152 6.1657 26.211C6.44804 23.4851 6.91244 19.828 5.86379 16.5745C6.24752 16.8625 6.27531 16.8841 6.54243 17.2352C8.39773 20.3129 11.2476 22.8696 14.4339 24.1007C17.338 25.2878 21.2098 24.5843 19.6369 19.836C18.7899 17.242 16.8135 14.9558 14.8776 13.329Z" fill="white"/>
<path d="M37.744 24.24C36.48 24.24 35.312 24.032 34.24 23.616C33.184 23.184 32.264 22.584 31.48 21.816C30.696 21.032 30.088 20.112 29.656 19.056C29.24 17.984 29.032 16.808 29.032 15.528C29.032 14.28 29.256 13.128 29.704 12.072C30.152 11.016 30.768 10.104 31.552 9.336C32.352 8.552 33.288 7.944 34.36 7.512C35.448 7.08 36.632 6.864 37.912 6.864C38.712 6.864 39.496 6.968 40.264 7.176C41.032 7.384 41.744 7.696 42.4 8.112C43.072 8.512 43.648 8.992 44.128 9.552L41.632 12.408C41.296 12.056 40.936 11.752 40.552 11.496C40.184 11.224 39.776 11.016 39.328 10.872C38.88 10.728 38.4 10.656 37.888 10.656C37.248 10.656 36.64 10.776 36.064 11.016C35.504 11.24 35.008 11.568 34.576 12C34.16 12.416 33.832 12.928 33.592 13.536C33.352 14.144 33.232 14.824 33.232 15.576C33.232 16.312 33.352 16.984 33.592 17.592C33.832 18.184 34.168 18.696 34.6 19.128C35.032 19.56 35.552 19.888 36.16 20.112C36.784 20.336 37.472 20.448 38.224 20.448C38.736 20.448 39.224 20.376 39.688 20.232C40.152 20.088 40.576 19.896 40.96 19.656C41.36 19.4 41.712 19.112 42.016 18.792L43.984 21.912C43.584 22.36 43.048 22.76 42.376 23.112C41.72 23.464 40.984 23.744 40.168 23.952C39.368 24.144 38.56 24.24 37.744 24.24ZM50.7121 24.264C49.7681 24.264 48.9601 24.064 48.2881 23.664C47.6321 23.248 47.1201 22.656 46.7521 21.888C46.4001 21.12 46.2241 20.2 46.2241 19.128V11.256H50.0881V18.6C50.0881 19.112 50.1681 19.552 50.3281 19.92C50.4881 20.288 50.7281 20.576 51.0481 20.784C51.3681 20.976 51.7521 21.072 52.2001 21.072C52.5361 21.072 52.8401 21.016 53.1121 20.904C53.4001 20.792 53.6401 20.64 53.8321 20.448C54.0401 20.24 54.2001 20.008 54.3121 19.752C54.4241 19.48 54.4801 19.184 54.4801 18.864V11.256H58.3441V24H54.7201L54.5521 21.384L55.2721 21.096C55.0801 21.704 54.7601 22.248 54.3121 22.728C53.8641 23.192 53.3281 23.568 52.7041 23.856C52.0801 24.128 51.4161 24.264 50.7121 24.264ZM61.7665 24V11.256H65.4145L65.5825 15.408L64.8625 14.616C65.0545 13.928 65.3665 13.312 65.7985 12.768C66.2465 12.224 66.7665 11.792 67.3585 11.472C67.9505 11.152 68.5825 10.992 69.2545 10.992C69.5425 10.992 69.8065 11.016 70.0465 11.064C70.3025 11.112 70.5345 11.168 70.7425 11.232L69.6865 15.48C69.5105 15.368 69.2705 15.28 68.9665 15.216C68.6785 15.136 68.3745 15.096 68.0545 15.096C67.7025 15.096 67.3745 15.16 67.0705 15.288C66.7665 15.4 66.5105 15.568 66.3025 15.792C66.0945 16.016 65.9265 16.28 65.7985 16.584C65.6865 16.888 65.6305 17.232 65.6305 17.616V24H61.7665ZM72.9044 24V11.256H76.7444V24H72.9044ZM74.8244 8.736C74.1044 8.736 73.5364 8.568 73.1204 8.232C72.7204 7.88 72.5204 7.384 72.5204 6.744C72.5204 6.168 72.7284 5.696 73.1444 5.328C73.5604 4.96 74.1204 4.776 74.8244 4.776C75.5444 4.776 76.1044 4.952 76.5044 5.304C76.9044 5.64 77.1044 6.12 77.1044 6.744C77.1044 7.336 76.8964 7.816 76.4804 8.184C76.0804 8.552 75.5284 8.736 74.8244 8.736ZM86.3524 24.24C85.0244 24.24 83.8404 23.952 82.8004 23.376C81.7764 22.8 80.9604 22.016 80.3524 21.024C79.7604 20.032 79.4644 18.896 79.4644 17.616C79.4644 16.336 79.7604 15.2 80.3524 14.208C80.9604 13.216 81.7764 12.432 82.8004 11.856C83.8404 11.28 85.0244 10.992 86.3524 10.992C87.6804 10.992 88.8564 11.28 89.8804 11.856C90.9204 12.432 91.7364 13.216 92.3284 14.208C92.9204 15.2 93.2164 16.336 93.2164 17.616C93.2164 18.896 92.9204 20.032 92.3284 21.024C91.7364 22.016 90.9204 22.8 89.8804 23.376C88.8564 23.952 87.6804 24.24 86.3524 24.24ZM86.3524 20.928C86.9284 20.928 87.4404 20.784 87.8884 20.496C88.3364 20.208 88.6884 19.816 88.9444 19.32C89.2004 18.824 89.3204 18.256 89.3044 17.616C89.3204 16.976 89.2004 16.408 88.9444 15.912C88.6884 15.4 88.3364 15 87.8884 14.712C87.4404 14.424 86.9284 14.28 86.3524 14.28C85.7764 14.28 85.2564 14.424 84.7924 14.712C84.3444 15 83.9924 15.4 83.7364 15.912C83.4804 16.408 83.3604 16.976 83.3764 17.616C83.3604 18.256 83.4804 18.824 83.7364 19.32C83.9924 19.816 84.3444 20.208 84.7924 20.496C85.2564 20.784 85.7764 20.928 86.3524 20.928ZM100.071 24.264C99.1274 24.264 98.3194 24.064 97.6474 23.664C96.9914 23.248 96.4794 22.656 96.1114 21.888C95.7594 21.12 95.5834 20.2 95.5834 19.128V11.256H99.4474V18.6C99.4474 19.112 99.5274 19.552 99.6874 19.92C99.8474 20.288 100.087 20.576 100.407 20.784C100.727 20.976 101.111 21.072 101.559 21.072C101.895 21.072 102.199 21.016 102.471 20.904C102.759 20.792 102.999 20.64 103.191 20.448C103.399 20.24 103.559 20.008 103.671 19.752C103.783 19.48 103.839 19.184 103.839 18.864V11.256H107.703V24H104.079L103.911 21.384L104.631 21.096C104.439 21.704 104.119 22.248 103.671 22.728C103.223 23.192 102.687 23.568 102.063 23.856C101.439 24.128 100.775 24.264 100.071 24.264ZM115.422 24.24C114.174 24.24 113.07 24.04 112.11 23.64C111.166 23.24 110.414 22.704 109.854 22.032L112.182 20.016C112.678 20.512 113.238 20.88 113.862 21.12C114.486 21.344 115.078 21.456 115.638 21.456C115.862 21.456 116.062 21.432 116.238 21.384C116.414 21.336 116.558 21.272 116.67 21.192C116.798 21.096 116.894 20.992 116.958 20.88C117.022 20.752 117.054 20.608 117.054 20.448C117.054 20.128 116.91 19.88 116.622 19.704C116.478 19.624 116.238 19.528 115.902 19.416C115.566 19.304 115.134 19.176 114.606 19.032C113.854 18.84 113.198 18.616 112.638 18.36C112.094 18.088 111.646 17.776 111.294 17.424C110.974 17.088 110.726 16.72 110.55 16.32C110.374 15.904 110.286 15.44 110.286 14.928C110.286 14.336 110.422 13.8 110.694 13.32C110.982 12.84 111.358 12.424 111.822 12.072C112.302 11.72 112.846 11.456 113.454 11.28C114.078 11.088 114.718 10.992 115.374 10.992C116.078 10.992 116.75 11.072 117.39 11.232C118.03 11.392 118.622 11.616 119.166 11.904C119.726 12.192 120.222 12.536 120.654 12.936L118.638 15.192C118.35 14.92 118.022 14.68 117.654 14.472C117.302 14.248 116.934 14.072 116.55 13.944C116.166 13.816 115.814 13.752 115.494 13.752C115.254 13.752 115.038 13.776 114.846 13.824C114.67 13.856 114.518 13.92 114.39 14.016C114.262 14.096 114.166 14.2 114.102 14.328C114.038 14.44 114.006 14.576 114.006 14.736C114.006 14.896 114.046 15.048 114.126 15.192C114.222 15.336 114.35 15.456 114.51 15.552C114.67 15.648 114.926 15.76 115.278 15.888C115.63 16 116.11 16.144 116.718 16.32C117.47 16.528 118.118 16.76 118.662 17.016C119.206 17.272 119.638 17.576 119.958 17.928C120.214 18.2 120.406 18.52 120.534 18.888C120.662 19.24 120.726 19.624 120.726 20.04C120.726 20.856 120.494 21.584 120.03 22.224C119.582 22.848 118.958 23.344 118.158 23.712C117.358 24.064 116.446 24.24 115.422 24.24ZM138.736 24.24C137.472 24.24 136.304 24.032 135.232 23.616C134.176 23.184 133.256 22.584 132.472 21.816C131.688 21.032 131.08 20.112 130.648 19.056C130.232 17.984 130.024 16.808 130.024 15.528C130.024 14.28 130.248 13.128 130.696 12.072C131.144 11.016 131.76 10.104 132.544 9.336C133.344 8.552 134.28 7.944 135.352 7.512C136.44 7.08 137.624 6.864 138.904 6.864C139.704 6.864 140.488 6.968 141.256 7.176C142.024 7.384 142.736 7.696 143.392 8.112C144.064 8.512 144.64 8.992 145.12 9.552L142.624 12.408C142.288 12.056 141.928 11.752 141.544 11.496C141.176 11.224 140.768 11.016 140.32 10.872C139.872 10.728 139.392 10.656 138.88 10.656C138.24 10.656 137.632 10.776 137.056 11.016C136.496 11.24 136 11.568 135.568 12C135.152 12.416 134.824 12.928 134.584 13.536C134.344 14.144 134.224 14.824 134.224 15.576C134.224 16.312 134.344 16.984 134.584 17.592C134.824 18.184 135.16 18.696 135.592 19.128C136.024 19.56 136.544 19.888 137.152 20.112C137.776 20.336 138.464 20.448 139.216 20.448C139.728 20.448 140.216 20.376 140.68 20.232C141.144 20.088 141.568 19.896 141.952 19.656C142.352 19.4 142.704 19.112 143.008 18.792L144.976 21.912C144.576 22.36 144.04 22.76 143.368 23.112C142.712 23.464 141.976 23.744 141.16 23.952C140.36 24.144 139.552 24.24 138.736 24.24ZM152.064 24.216C150.992 24.216 150.032 23.936 149.184 23.376C148.352 22.8 147.688 22.016 147.192 21.024C146.696 20.016 146.448 18.88 146.448 17.616C146.448 16.32 146.696 15.176 147.192 14.184C147.688 13.192 148.368 12.416 149.232 11.856C150.096 11.28 151.08 10.992 152.184 10.992C152.792 10.992 153.344 11.08 153.84 11.256C154.352 11.432 154.8 11.68 155.184 12C155.568 12.304 155.896 12.664 156.168 13.08C156.44 13.48 156.64 13.912 156.768 14.376L155.976 14.28V11.256H159.792V24H155.904V20.928L156.768 20.904C156.64 21.352 156.432 21.776 156.144 22.176C155.856 22.576 155.504 22.928 155.088 23.232C154.672 23.536 154.208 23.776 153.696 23.952C153.184 24.128 152.64 24.216 152.064 24.216ZM153.12 20.976C153.712 20.976 154.224 20.84 154.656 20.568C155.088 20.296 155.424 19.912 155.664 19.416C155.904 18.904 156.024 18.304 156.024 17.616C156.024 16.928 155.904 16.336 155.664 15.84C155.424 15.328 155.088 14.936 154.656 14.664C154.224 14.376 153.712 14.232 153.12 14.232C152.544 14.232 152.04 14.376 151.608 14.664C151.192 14.936 150.864 15.328 150.624 15.84C150.384 16.336 150.264 16.928 150.264 17.616C150.264 18.304 150.384 18.904 150.624 19.416C150.864 19.912 151.192 20.296 151.608 20.568C152.04 20.84 152.544 20.976 153.12 20.976ZM170.837 24.264C170.261 24.264 169.709 24.184 169.181 24.024C168.653 23.864 168.173 23.648 167.741 23.376C167.325 23.104 166.973 22.792 166.685 22.44C166.413 22.072 166.229 21.696 166.133 21.312L166.973 21.024L166.757 23.976H163.181V6.24H167.045V14.304L166.253 14.016C166.349 13.6 166.533 13.216 166.805 12.864C167.077 12.496 167.421 12.176 167.837 11.904C168.253 11.616 168.709 11.392 169.205 11.232C169.701 11.072 170.213 10.992 170.741 10.992C171.845 10.992 172.821 11.28 173.669 11.856C174.533 12.416 175.213 13.2 175.709 14.208C176.205 15.2 176.453 16.336 176.453 17.616C176.453 18.912 176.205 20.064 175.709 21.072C175.229 22.064 174.565 22.848 173.717 23.424C172.869 23.984 171.909 24.264 170.837 24.264ZM169.829 21.024C170.405 21.024 170.909 20.88 171.341 20.592C171.773 20.304 172.101 19.912 172.325 19.416C172.565 18.904 172.685 18.304 172.685 17.616C172.685 16.944 172.565 16.352 172.325 15.84C172.101 15.328 171.773 14.936 171.341 14.664C170.909 14.392 170.405 14.256 169.829 14.256C169.237 14.256 168.725 14.392 168.293 14.664C167.861 14.936 167.525 15.328 167.285 15.84C167.045 16.352 166.925 16.944 166.925 17.616C166.925 18.304 167.045 18.904 167.285 19.416C167.525 19.912 167.861 20.304 168.293 20.592C168.725 20.88 169.237 21.024 169.829 21.024ZM179.193 24V11.256H183.033V24H179.193ZM181.113 8.736C180.393 8.736 179.825 8.568 179.409 8.232C179.009 7.88 178.809 7.384 178.809 6.744C178.809 6.168 179.017 5.696 179.433 5.328C179.849 4.96 180.409 4.776 181.113 4.776C181.833 4.776 182.393 4.952 182.793 5.304C183.193 5.64 183.393 6.12 183.393 6.744C183.393 7.336 183.185 7.816 182.769 8.184C182.369 8.552 181.817 8.736 181.113 8.736ZM186.642 24V11.256H190.29L190.41 13.848L189.642 14.136C189.818 13.56 190.13 13.04 190.578 12.576C191.042 12.096 191.594 11.712 192.234 11.424C192.874 11.136 193.546 10.992 194.25 10.992C195.21 10.992 196.018 11.192 196.674 11.592C197.33 11.976 197.826 12.56 198.161 13.344C198.498 14.112 198.666 15.056 198.666 16.176V24H194.802V16.488C194.802 15.976 194.73 15.552 194.586 15.216C194.442 14.88 194.218 14.632 193.914 14.472C193.626 14.296 193.266 14.216 192.834 14.232C192.498 14.232 192.186 14.288 191.898 14.4C191.61 14.496 191.362 14.648 191.154 14.856C190.946 15.048 190.778 15.272 190.65 15.528C190.538 15.784 190.482 16.064 190.482 16.368V24H188.586C188.138 24 187.754 24 187.434 24C187.114 24 186.85 24 186.642 24Z" fill="white"/>
</svg>
