<svg width="64" height="73" viewBox="0 0 64 73" fill="none" xmlns="http://www.w3.org/2000/svg">
<path d="M47.6083 30.8329C56.6429 23.2356 75.228 -3.9177 46.1885 0.865779C33.5402 2.83542 17.8607 14.3466 14.1178 28.6971C12.1651 24.8597 10.0104 21.1486 7.66451 17.5825C4.17978 12.6583 -2.72705 17.4673 1.14488 22.5321C12.1154 37.0233 19.7302 54.4687 19.7302 72.0552C20.6337 63.3323 22.1198 51.6296 18.7641 41.2185C19.9921 42.1399 20.081 42.209 20.9358 43.3326C26.8727 53.1811 35.9924 61.3626 46.1885 65.3021C55.4814 69.1008 67.8713 66.8496 62.8381 51.6551C60.1276 43.3543 53.8032 36.0384 47.6083 30.8329Z" fill="white"/>
</svg>
